<svg xmlns="http://www.w3.org/2000/svg" viewBox="0 0 1920 585.61">
	<defs>
		<style>
			.cls-1{fill:#26272c;}.cls-2{fill:#222429;}
		</style>
	</defs>
	<path class="cls-1" d="M1920,105.61s-327.79-115.72-552.46,0l-179.36,99.32S978,320.64,770.64,312.93V604H1920Z" transform="translate(0 -18.39)" />
	<path class="cls-2" d="M0,34.25s203.64-35.68,433.14,0c0,0,143.68,17.36,272.9,113.79L916.25,295.57s214.07,113.79,247.82,111.86c0,0,220.82-176.47,268.07-183.22,0,0,143.54-75.21,487.86-30.85V604H0Z" transform="translate(0 -18.39)" />
	<path class="cls-1" d="M0,317.75s313.36-104,574.39-8.1a343.6,343.6,0,0,1,34.26,14.81L814.36,426.71s274.4,133.62,455,113c5.88-.67,11.77-1.12,17.69-1.2,41.17-.61,215.36-4.66,406.44-30.76,0,0,186.93-19.28,226.54,7.72V604H0Z" transform="translate(0 -18.39)" />
</svg>
