<svg xmlns="http://www.w3.org/2000/svg" viewBox="0 0 198.95 177.09"><defs><style>.cls-1{fill:none;stroke:#eb798d;stroke-miterlimit:10;stroke-width:16px}.cls-2{fill:#eb798d}.cls-3,.cls-5{fill:#f23859}.cls-3{opacity:.28}.cls-4{fill:#2b0a10}.cls-6{fill:#e03351}.cls-7{fill:#4a111b}.cls-8{fill:#191919}.cls-9{fill:#fff}</style></defs><g><path d="M111.62,17.59c80.86,2.76,80.25,80.24,80.25,80.24v.61s.61,77.48-80.25,80.25c0,0-77.17,1.53-80.86-80.86" class="cls-1" transform="translate(-0.91 -9.59)"/><path d="M76.39,94.64A37.74,37.74,0,0,1,51.85,130l-5.47,1.58h0c-.64.13-1.29.25-1.94.35h-.13a40.37,40.37,0,0,1-15.49-.78,35.78,35.78,0,0,1-25.19-22.1c-10-26.87,9.55-52.16,35.05-52.16h1.2l.86,0,.89.06A37.74,37.74,0,0,1,76.39,94.64Z" class="cls-2" transform="translate(-0.91 -9.59)"/><path d="M43,132.15a36.93,36.93,0,0,1-4,.24c-17.65.17-34.95-14.27-37.65-31.71A37.77,37.77,0,0,1,38.66,56.91h1.2l.86,0,.89.06c.46,0,.92.08,1.37.14C24.17,59.3,5.63,75.29,5.63,94.67S24.18,130,43,132.15Z" class="cls-3" transform="translate(-0.91 -9.59)"/><path d="M58.21,114.08a10.13,10.13,0,0,1-10,8.16,9.1,9.1,0,0,1-1.86-.19,10.11,10.11,0,0,1-7-5.19l.72-.2a43.6,43.6,0,0,0,17.17-9.3A10.18,10.18,0,0,1,58.21,114.08Z" class="cls-4" transform="translate(-0.91 -9.59)"/><path d="M57.55,116.18a10.22,10.22,0,0,1-9.38,6.06,6.37,6.37,0,0,1-.08-1,6.1,6.1,0,0,1,9.46-5.08Z" class="cls-5" transform="translate(-0.91 -9.59)"/><path d="M53.47,100.62c-1.45,4.16-5.14,10-14.4,10.59a11.22,11.22,0,0,1-1.16,0c-9.26-.58-12.95-6.43-14.4-10.59A15,15,0,0,1,23,92.45c1.51-6.74,6.26-5.5,6.26-5.5q1.32.24,2.46.54a26.84,26.84,0,0,0,13.5,0q1.14-.3,2.46-.54s4.75-1.24,6.26,5.5A15,15,0,0,1,53.47,100.62Z" class="cls-5" transform="translate(-0.91 -9.59)"/><path d="M39.74,111.15l-.67.06a11.22,11.22,0,0,1-1.16,0c-9.27-.58-12.95-6.43-14.41-10.59A15,15,0,0,1,23,92.45c1.51-6.74,6.25-5.5,6.25-5.5l.41.07c-1.47.4-3.31,1.68-4.15,5.43a15,15,0,0,0,.48,8.17C27.43,104.67,31,110.34,39.74,111.15Z" class="cls-6" transform="translate(-0.91 -9.59)"/><rect width="6.15" height="12.3" x="28.28" y="83" class="cls-7" rx="2.5"/><rect width="6.15" height="12.3" x="40.58" y="83" class="cls-7" rx="2.5"/><g><ellipse cx="53.52" cy="69.89" class="cls-8" rx="7.99" ry="7.57"/></g><g><path d="M56,74.1a3.79,3.79,0,1,0,4,3.79A3.92,3.92,0,0,0,56,74.1Z" class="cls-9" transform="translate(-0.91 -9.59)"/></g><g><ellipse cx="22.24" cy="69.89" class="cls-8" rx="7.99" ry="7.57"/></g><g><path d="M21.39,81.67a1.6,1.6,0,1,0,1.68,1.6A1.64,1.64,0,0,0,21.39,81.67Z" class="cls-9" transform="translate(-0.91 -9.59)"/></g><g><path d="M24.75,74.1a3.79,3.79,0,1,0,4,3.79A3.91,3.91,0,0,0,24.75,74.1Z" class="cls-9" transform="translate(-0.91 -9.59)"/></g><g><path d="M52.76,81.67a1.6,1.6,0,1,0,1.68,1.6A1.65,1.65,0,0,0,52.76,81.67Z" class="cls-9" transform="translate(-0.91 -9.59)"/></g></g></svg>